<svg width="133" height="38" viewBox="0 0 133 38" fill="none" xmlns="http://www.w3.org/2000/svg">
<path d="M16.4328 14.2883C16.4328 14.2883 23.4254 15.3403 23.0758 22.9666C22.9447 26.0346 20.978 29.6724 16.0831 30.3299C14.4661 30.549 12.4994 30.5928 10.2705 30.5928H0V0.0876575H9.87714C15.6898 -0.0438313 21.0654 1.35871 21.0654 7.6263C21.0654 13.3241 16.4328 14.2883 16.4328 14.2883ZM3.88967 3.06805V13.0611H6.55563C6.55563 13.0611 7.73564 13.0611 7.91046 13.0611C8.91565 13.0611 10.926 12.9735 11.5379 12.9735C14.9031 13.0611 17.2631 11.1765 17.2631 7.88927C17.2631 5.61015 15.9083 3.02422 9.30899 3.02422L3.88967 3.06805ZM10.4453 27.3495C17.5254 27.5248 19.1424 25.158 19.1424 21.827C19.1424 19.504 17.6128 16.3483 12.0624 16.3483L3.88967 16.3922V27.3495H9.04676C9.04676 27.3495 10.2268 27.3495 10.4453 27.3495Z" fill="#144150"/>
<path d="M25.3464 30.6367V8.50288H29.236L29.1486 30.6367H25.3464ZM29.236 3.90081H25.3464V0.0876575H29.236V3.90081Z" fill="#144150"/>
<path d="M41.5323 7.84544C48.7435 7.84544 52.0213 12.8858 52.0213 19.4164C52.0213 24.8074 49.6613 31.0311 41.5323 31.0311C33.7966 30.9873 31.0433 25.2457 31.0433 19.6794C31.0433 12.7105 34.0589 7.84544 41.5323 7.84544ZM41.5323 27.9631C45.3782 27.9631 48.0005 25.1142 48.0005 18.9343C48.0005 13.2803 44.9849 10.8258 41.4012 10.8258C37.9048 10.8258 35.0641 13.8501 35.0641 18.9781C35.0641 25.3333 37.6426 27.9631 41.5323 27.9631Z" fill="#144150"/>
<path d="M63.4236 8.19608C66.5266 8.19608 72.383 9.7301 72.383 19.8108C72.383 30.549 66.3518 31.3379 63.2051 31.2065C60.8888 31.1188 59.228 30.1546 58.1791 29.278C57.1739 28.4452 56.6932 27.0427 56.6932 27.0427C56.6932 27.0427 56.6932 36.6413 56.6932 38H53.022V8.59054H56.6932V12.1845C56.6932 12.1845 57.1302 10.7382 58.0917 9.99308C59.1406 9.11649 60.8451 8.19608 63.4236 8.19608ZM62.5933 28.1822C66.4392 28.3576 68.7118 25.4648 68.7118 19.9423C68.7118 13.9815 66.3081 11.2203 62.5933 11.2203C60.3643 11.2203 56.9117 12.7982 56.9117 19.6355C56.9117 26.1223 60.1895 28.0946 62.5933 28.1822Z" fill="#144150"/>
<path d="M92.012 26.5606L93.0609 30.549L88.8653 30.5928L88.5593 27.3495C88.5593 27.3495 87.9912 28.4452 86.9423 29.3656C86.5489 29.7163 86.0245 29.9354 85.4563 30.1984C84.2763 30.7243 82.703 31.0311 80.9111 31.0311C70.3347 31.0311 70.3784 19.3287 78.9007 18.1453C80.0807 18.0138 81.523 17.8385 82.9215 17.6632C86.0682 17.3126 88.0786 16.8304 88.2971 15.7347C88.2971 15.7347 88.7779 14.0254 87.2482 12.4913C85.4126 10.5629 78.2014 10.2122 77.1088 14.4637L73.5688 13.5871C73.9621 12.2284 74.6614 10.9573 75.8414 10.0807C76.8903 9.24798 78.0703 8.6782 79.4252 8.37139C81.1733 7.97693 86.5052 7.58247 88.9964 9.51096C92.0557 11.8339 91.8371 15.0334 91.9246 17.5755L92.012 26.5606ZM88.3408 21.9146V19.4164C85.5 21.0819 79.4689 20.2491 77.2837 22.2653C75.9725 23.4048 76.191 25.8155 77.7644 26.9988C78.7259 27.7439 79.9933 27.9631 81.3481 27.9631C83.2711 27.9631 85.3252 27.3057 86.6801 25.9031C87.6415 24.9389 88.3408 23.7116 88.3408 21.9146Z" fill="#144150"/>
<path d="M103.515 27.7001C107.973 27.6563 109.153 24.2376 109.153 24.2376L112.955 25.0704C112.955 25.0704 111.557 31.0311 103.384 31.0311C97.7461 31.0311 93.2009 27.1303 93.2009 19.1534C93.2009 12.4475 97.0468 8.06459 103.209 8.06459C111.251 8.06459 112.562 13.9377 112.562 13.9377L108.76 14.8581C108.76 14.8581 107.623 10.9135 103.209 11.0888C98.8824 11.2641 97.1342 14.7266 97.0905 19.2411C97.1342 24.9827 100.019 27.7001 103.515 27.7001Z" fill="#144150"/>
<path d="M133 30.5928H128.105L117.529 19.4164L117.616 30.5928L113.726 30.6367V0H117.616L117.529 17.4441L127.318 8.37139H132.17L121.156 18.4521L133 30.5928Z" fill="#144150"/>
</svg>
