<svg width="72" height="36" viewBox="0 0 72 36" fill="none" xmlns="http://www.w3.org/2000/svg">
<path d="M0 36C4.13299e-07 31.2724 0.931168 26.5911 2.74034 22.2234C4.54951 17.8557 7.20125 13.8871 10.5442 10.5442C13.8871 7.20124 17.8557 4.5495 22.2234 2.74033C26.5911 0.931166 31.2724 -6.19947e-07 36 0C40.7276 6.19949e-07 45.4089 0.931168 49.7766 2.74034C54.1443 4.54951 58.1129 7.20125 61.4559 10.5442C64.7988 13.8871 67.4505 17.8557 69.2597 22.2234C71.0688 26.5911 72 31.2724 72 36L0 36Z" fill="url(#paint0_linear_10_1594)"/>
<defs>
<linearGradient id="paint0_linear_10_1594" x1="2" y1="20" x2="67" y2="27" gradientUnits="userSpaceOnUse">
<stop stop-color="#EDC37D"/>
<stop offset="1" stop-color="#BFF7E7"/>
</linearGradient>
</defs>
</svg>
