<svg width="141" height="141" viewBox="0 0 141 141" fill="none" xmlns="http://www.w3.org/2000/svg">
<path d="M95.2201 2.86107C98.8442 0.0823478 104.103 2.45594 104.417 7.01191L106.118 31.7057C106.305 34.4232 108.381 36.6328 111.081 36.9893L135.621 40.2293C140.148 40.827 142.189 46.2242 139.189 49.6677L122.931 68.3316C121.141 70.3855 121.047 73.4156 122.704 75.5772L137.765 95.2202C140.544 98.8443 138.17 104.103 133.614 104.417L108.92 106.118C106.203 106.305 103.993 108.381 103.637 111.082L100.397 135.621C99.7992 140.148 94.402 142.189 90.9585 139.189L72.2946 122.931C70.2407 121.141 67.2106 121.047 65.049 122.704L45.406 137.765C41.7819 140.544 36.5227 138.17 36.2089 133.614L34.508 108.921C34.3208 106.203 32.2452 103.993 29.5447 103.637L5.00535 100.397C0.477871 99.7992 -1.56261 94.402 1.43705 90.9585L17.6955 72.2947C19.4847 70.2407 19.5794 67.2107 17.922 65.049L2.86101 45.4061C0.0822824 41.782 2.45587 36.5228 7.01185 36.2089L31.7057 34.508C34.4232 34.3209 36.6327 32.2453 36.9893 29.5448L40.2292 5.00541C40.827 0.477936 46.2242 -1.56254 49.6676 1.43712L68.3315 17.6955C70.3854 19.4848 73.4155 19.5795 75.5772 17.922L95.2201 2.86107Z" fill="#FFA8A8"/>
</svg>
