<svg width="79" height="91" viewBox="0 0 79 91" fill="none" xmlns="http://www.w3.org/2000/svg">
<path d="M95.5963 -43.3238C98.2478 -44.6654 101.461 -43.2154 102.209 -40.3395L105.794 -26.558C106.304 -24.5972 108.023 -23.1908 110.046 -23.079L124.264 -22.2933C127.231 -22.1293 129.289 -19.2672 128.499 -16.4026L124.713 -2.67485C124.174 -0.721646 124.96 1.35577 126.656 2.4641L138.577 10.2538C141.064 11.8793 141.415 15.3867 139.298 17.4725L129.156 27.4681C127.713 28.8903 127.354 31.0821 128.269 32.8899L134.698 45.5964C136.039 48.2479 134.589 51.4607 131.713 52.2088L117.932 55.794C115.971 56.3041 114.564 58.023 114.453 60.046L113.667 74.2645C113.503 77.2315 110.641 79.2889 107.776 78.4989L94.0486 74.713C92.0954 74.1743 90.018 74.9597 88.9096 76.6558L81.12 88.5766C79.4945 91.0641 75.9871 91.4148 73.9012 89.2983L63.9057 79.1557C62.4835 77.7126 60.2917 77.3541 58.4838 78.2688L45.7774 84.6976C43.1259 86.0392 39.913 84.5892 39.1649 81.7133L35.5797 67.9318C35.0696 65.9709 33.3508 64.5645 31.3277 64.4527L17.1092 63.6671C14.1422 63.5031 12.0848 60.641 12.8748 57.7763L16.6608 44.0486C17.1994 42.0954 16.414 40.018 14.7179 38.9097L2.79718 31.12C0.309621 29.4945 -0.0410501 25.9871 2.07545 23.9013L12.218 13.9057C13.6611 12.4835 14.0196 10.2917 13.1049 8.48384L6.6761 -4.22259C5.33457 -6.87409 6.78458 -10.0869 9.66043 -10.8351L23.4419 -14.4202C25.4028 -14.9303 26.8092 -16.6492 26.921 -18.6722L27.7067 -32.8907C27.8706 -35.8578 30.7328 -37.9151 33.5974 -37.1251L47.3251 -33.3392C49.2783 -32.8005 51.3557 -33.5859 52.464 -35.282L60.2537 -47.2028C61.8792 -49.6903 65.3866 -50.041 67.4724 -47.9245L77.468 -37.7819C78.8902 -36.3388 81.082 -35.9803 82.8899 -36.895L95.5963 -43.3238Z" fill="#FFCD83"/>
</svg>
