<svg width="141" height="141" viewBox="0 0 141 141" fill="none" xmlns="http://www.w3.org/2000/svg">
<path d="M95.5963 6.67616C98.2478 5.33462 101.461 6.78463 102.209 9.66048L105.794 23.442C106.304 25.4028 108.023 26.8092 110.046 26.921L124.264 27.7067C127.231 27.8707 129.289 30.7328 128.499 33.5974L124.713 47.3252C124.174 49.2784 124.96 51.3558 126.656 52.4641L138.577 60.2538C141.064 61.8793 141.415 65.3867 139.298 67.4725L129.156 77.4681C127.713 78.8903 127.354 81.0821 128.269 82.8899L134.698 95.5964C136.039 98.2479 134.589 101.461 131.713 102.209L117.932 105.794C115.971 106.304 114.564 108.023 114.453 110.046L113.667 124.265C113.503 127.232 110.641 129.289 107.776 128.499L94.0486 124.713C92.0954 124.174 90.018 124.96 88.9096 126.656L81.12 138.577C79.4945 141.064 75.9871 141.415 73.9012 139.298L63.9057 129.156C62.4835 127.713 60.2917 127.354 58.4838 128.269L45.7774 134.698C43.1259 136.039 39.913 134.589 39.1649 131.713L35.5797 117.932C35.0696 115.971 33.3508 114.565 31.3277 114.453L17.1092 113.667C14.1422 113.503 12.0848 110.641 12.8748 107.776L16.6608 94.0486C17.1994 92.0954 16.414 90.018 14.7179 88.9097L2.79718 81.12C0.309621 79.4945 -0.0410501 75.9871 2.07545 73.9013L12.218 63.9057C13.6611 62.4835 14.0196 60.2917 13.1049 58.4838L6.6761 45.7774C5.33457 43.1259 6.78458 39.9131 9.66043 39.1649L23.4419 35.5798C25.4028 35.0697 26.8092 33.3508 26.921 31.3278L27.7067 17.1093C27.8706 14.1422 30.7328 12.0849 33.5974 12.8749L47.3251 16.6608C49.2783 17.1995 51.3557 16.4141 52.464 14.718L60.2537 2.79723C61.8792 0.309674 65.3866 -0.0409973 67.4724 2.0755L77.468 12.2181C78.8902 13.6612 81.082 14.0197 82.8899 13.105L95.5963 6.67616Z" fill="#FFCD83"/>
</svg>
