<svg width="144" height="144" viewBox="0 0 144 144" fill="none" xmlns="http://www.w3.org/2000/svg">
<path fill-rule="evenodd" clip-rule="evenodd" d="M77.5758 33.207C77.3452 17.1872 65.6109 3.18815 49.2472 0.630746C30.9675 -2.22608 13.833 10.2766 10.9762 28.5562C8.41878 44.92 18.17 60.3661 33.3555 65.4736L33.2069 66.4241C17.1872 66.6546 3.18812 78.3889 0.63071 94.7527C-2.22612 113.032 10.2766 130.167 28.5562 133.024C44.92 135.581 60.3661 125.83 65.4735 110.644L66.424 110.793C66.6546 126.813 78.3889 140.812 94.7527 143.369C113.032 146.226 130.167 133.723 133.024 115.444C135.581 99.0799 125.83 83.6338 110.644 78.5263L110.793 77.5758C126.813 77.3453 140.812 65.611 143.369 49.2472C146.226 30.9675 133.723 13.833 115.444 10.9762C99.0798 8.41882 83.6337 18.17 78.5263 33.3555L77.5758 33.207Z" fill="#FFA8A8"/>
</svg>
