<svg width="91" height="91" viewBox="0 0 91 91" fill="none" xmlns="http://www.w3.org/2000/svg">
<path fill-rule="evenodd" clip-rule="evenodd" d="M53.0743 22.1901C50.9189 9.58995 39.9439 0 26.729 0C11.967 0 0 11.967 0 26.729C0 39.9439 9.58996 50.9189 22.1901 53.0743V53.8419C9.58996 55.9973 0 66.9723 0 80.1871C0 94.9491 11.967 106.916 26.729 106.916C39.9439 106.916 50.9189 97.3262 53.0743 84.726H53.8419C55.9972 97.3262 66.9722 106.916 80.1871 106.916C94.9491 106.916 106.916 94.9491 106.916 80.1871C106.916 66.9722 97.3262 55.9972 84.726 53.8419V53.0743C97.3262 50.9189 106.916 39.9439 106.916 26.729C106.916 11.967 94.9491 0 80.1871 0C66.9723 0 55.9973 9.58995 53.8419 22.1901H53.0743Z" fill="#30705E"/>
</svg>
