<svg width="170" height="175" viewBox="0 0 170 175" fill="none" xmlns="http://www.w3.org/2000/svg">
<path fill-rule="evenodd" clip-rule="evenodd" d="M99.2821 16.5097C95.2503 -7.06062 74.7201 -25 50 -25C22.3858 -25 0 -2.61424 0 25C0 49.72 17.9392 70.2502 41.5095 74.2821V75.7179C17.9392 79.7498 0 100.28 0 125C0 152.614 22.3858 175 50 175C74.7199 175 95.25 157.061 99.282 133.491H100.718C104.75 157.061 125.28 175 150 175C177.614 175 200 152.614 200 125C200 100.28 182.061 79.7499 158.491 75.718V74.282C182.061 70.2501 200 49.72 200 25C200 -2.61424 177.614 -25 150 -25C125.28 -25 104.75 -7.06062 100.718 16.5097H99.2821Z" fill="#FFA8A8"/>
</svg>
